<svg width="31" height="31" viewBox="0 0 31 31" fill="none" xmlns="http://www.w3.org/2000/svg">
<g clip-path="url(#clip0_2474_526)">
<path d="M2.04956 8.76902C3.3007 6.2312 5.18281 4.247 7.60867 2.75501C13.1139 -0.630986 20.2014 -0.228965 25.2324 3.73944C25.982 4.33047 25.9829 4.33143 25.3069 5.00115C24.1616 6.13525 23.0114 7.26456 21.8719 8.40538C21.6887 8.5896 21.576 8.67595 21.3301 8.46199C17.1544 4.83612 10.2569 6.13333 7.57634 11.5026C7.39803 11.8595 7.24029 12.2251 7.07275 12.5868C6.86602 12.6261 6.74061 12.4755 6.60639 12.3747C5.17987 11.3011 3.75237 10.2274 2.34447 9.12978C2.21906 9.03096 2.07209 8.9494 2.04956 8.76902Z" fill="#E44335"/>
<path d="M25.8144 26.8518C24.0058 28.528 21.8513 29.5796 19.4362 30.068C13.7057 31.2242 8.70304 29.8732 4.56947 25.7436C3.52898 24.7035 2.67953 23.5167 2.05249 22.1868C2.17006 21.8568 2.4973 21.7349 2.74615 21.544C3.9875 20.5912 5.20925 19.6135 6.46235 18.6751C6.63577 18.5456 6.79351 18.3537 7.05902 18.4151C7.43133 19.1175 7.73407 19.8524 8.18672 20.5164C11.1848 24.9108 16.7831 25.5728 20.7099 23.2451C20.7912 23.1972 20.8843 23.1665 20.9725 23.1281C21.1812 23.1444 21.3232 23.2816 21.477 23.3958C22.8173 24.3936 24.1449 25.4078 25.4823 26.4095C25.6341 26.5246 25.8075 26.6292 25.8144 26.8518Z" fill="#34A253"/>
<path d="M25.8145 26.852C24.3997 25.7707 22.985 24.6903 21.5712 23.6081C21.3684 23.4526 21.1724 23.2885 20.9735 23.1283C21.7907 22.4922 22.5598 21.8129 23.0947 20.9158C23.4494 20.3199 23.7071 19.6876 23.8971 19.0246C23.998 18.6744 23.9079 18.5506 23.5101 18.5526C21.0843 18.5689 18.6574 18.5487 16.2315 18.5718C15.7926 18.5756 15.6917 18.4537 15.6986 18.0392C15.724 16.4292 15.7191 14.8183 15.7005 13.2083C15.6966 12.8705 15.7946 12.7842 16.1355 12.7842C20.6786 12.7947 25.2217 12.7947 29.7639 12.7851C30.0696 12.7842 30.1803 12.8696 30.2195 13.168C30.871 18.1189 29.9157 22.616 26.3612 26.3867C26.1995 26.5613 26.0438 26.7494 25.8145 26.852Z" fill="#4280EE"/>
<path d="M7.05911 18.4151C5.45036 19.5147 3.97975 20.7889 2.40725 21.9345C2.29066 22.0199 2.17113 22.1024 2.05258 22.1859C1.15708 20.55 0.662308 18.7913 0.484973 16.9567C0.217501 14.1733 0.680924 11.5021 1.92521 8.97292C1.96048 8.90192 2.00751 8.83668 2.04964 8.76855C3.72403 10.0408 5.39843 11.3131 7.0738 12.5854C6.86414 13.4441 6.64859 14.3028 6.62802 15.1932C6.60646 16.1325 6.72697 17.0536 6.98465 17.9594C7.0258 18.1052 7.13455 18.2482 7.05911 18.4151Z" fill="#F5B604"/>
</g>
<defs>
<clipPath id="clip0_2474_526">
<rect width="30" height="30" fill="white" transform="translate(0.412354 0.464844)"/>
</clipPath>
</defs>
</svg>
